<mxfile host="app.diagrams.net" modified="2024-05-23T05:46:55.076Z" agent="Mozilla/5.0 (Macintosh; Intel Mac OS X 10_15_7) AppleWebKit/537.36 (KHTML, like Gecko) Chrome/124.0.0.0 Safari/537.36" etag="bchuDMitDCmiwjkE4uYl" version="24.4.6" type="github">
  <diagram name="페이지-1" id="01PjtBnGj7benBQpnryJ">
    <mxGraphModel dx="949" dy="912" grid="0" gridSize="10" guides="1" tooltips="1" connect="1" arrows="1" fold="1" page="1" pageScale="1" pageWidth="1600" pageHeight="900" math="0" shadow="0">
      <root>
        <mxCell id="0" />
        <mxCell id="1" parent="0" />
        <mxCell id="Ytf4gtK0Q_wr9BrQV-4_-4" value="지점" style="whiteSpace=wrap;html=1;align=center;" vertex="1" parent="1">
          <mxGeometry x="139" y="187" width="100" height="40" as="geometry" />
        </mxCell>
        <mxCell id="Ytf4gtK0Q_wr9BrQV-4_-18" value="" style="rounded=0;orthogonalLoop=1;jettySize=auto;html=1;endArrow=none;endFill=0;" edge="1" parent="1" source="Ytf4gtK0Q_wr9BrQV-4_-17" target="Ytf4gtK0Q_wr9BrQV-4_-4">
          <mxGeometry relative="1" as="geometry" />
        </mxCell>
        <mxCell id="Ytf4gtK0Q_wr9BrQV-4_-17" value="도시" style="ellipse;whiteSpace=wrap;html=1;align=center;" vertex="1" parent="1">
          <mxGeometry x="139" y="116" width="100" height="40" as="geometry" />
        </mxCell>
        <mxCell id="Ytf4gtK0Q_wr9BrQV-4_-19" style="rounded=0;orthogonalLoop=1;jettySize=auto;html=1;entryX=0;entryY=0.5;entryDx=0;entryDy=0;endArrow=none;endFill=0;exitX=1;exitY=0.5;exitDx=0;exitDy=0;" edge="1" parent="1" source="Ytf4gtK0Q_wr9BrQV-4_-20" target="Ytf4gtK0Q_wr9BrQV-4_-22">
          <mxGeometry relative="1" as="geometry">
            <mxPoint x="282" y="686.6923076923076" as="targetPoint" />
            <mxPoint x="282" y="394" as="sourcePoint" />
          </mxGeometry>
        </mxCell>
        <mxCell id="Ytf4gtK0Q_wr9BrQV-4_-20" value="버스" style="whiteSpace=wrap;html=1;align=center;" vertex="1" parent="1">
          <mxGeometry x="555" y="450" width="100" height="40" as="geometry" />
        </mxCell>
        <mxCell id="Ytf4gtK0Q_wr9BrQV-4_-21" value="노선" style="whiteSpace=wrap;html=1;align=center;" vertex="1" parent="1">
          <mxGeometry x="139" y="448" width="100" height="40" as="geometry" />
        </mxCell>
        <mxCell id="Ytf4gtK0Q_wr9BrQV-4_-22" value="운행하다" style="shape=rhombus;perimeter=rhombusPerimeter;whiteSpace=wrap;html=1;align=center;" vertex="1" parent="1">
          <mxGeometry x="344" y="438" width="120" height="60" as="geometry" />
        </mxCell>
        <mxCell id="Ytf4gtK0Q_wr9BrQV-4_-23" style="rounded=0;orthogonalLoop=1;jettySize=auto;html=1;entryX=1;entryY=0.5;entryDx=0;entryDy=0;endArrow=none;endFill=0;exitX=0;exitY=0.5;exitDx=0;exitDy=0;" edge="1" parent="1" source="Ytf4gtK0Q_wr9BrQV-4_-22" target="Ytf4gtK0Q_wr9BrQV-4_-21">
          <mxGeometry relative="1" as="geometry">
            <mxPoint x="402" y="440" as="targetPoint" />
            <mxPoint x="402" y="403" as="sourcePoint" />
          </mxGeometry>
        </mxCell>
        <mxCell id="Ytf4gtK0Q_wr9BrQV-4_-26" style="rounded=0;orthogonalLoop=1;jettySize=auto;html=1;endArrow=none;endFill=0;" edge="1" parent="1" source="Ytf4gtK0Q_wr9BrQV-4_-24" target="Ytf4gtK0Q_wr9BrQV-4_-21">
          <mxGeometry relative="1" as="geometry" />
        </mxCell>
        <mxCell id="Ytf4gtK0Q_wr9BrQV-4_-24" value="속하다" style="shape=rhombus;perimeter=rhombusPerimeter;whiteSpace=wrap;html=1;align=center;" vertex="1" parent="1">
          <mxGeometry x="129" y="304" width="120" height="60" as="geometry" />
        </mxCell>
        <mxCell id="Ytf4gtK0Q_wr9BrQV-4_-25" style="rounded=0;orthogonalLoop=1;jettySize=auto;html=1;endArrow=none;endFill=0;entryX=0.5;entryY=0;entryDx=0;entryDy=0;shape=link;" edge="1" parent="1" source="Ytf4gtK0Q_wr9BrQV-4_-4" target="Ytf4gtK0Q_wr9BrQV-4_-24">
          <mxGeometry relative="1" as="geometry" />
        </mxCell>
        <mxCell id="Ytf4gtK0Q_wr9BrQV-4_-32" style="rounded=0;orthogonalLoop=1;jettySize=auto;html=1;endArrow=none;endFill=0;entryX=0.5;entryY=1;entryDx=0;entryDy=0;" edge="1" parent="1" source="Ytf4gtK0Q_wr9BrQV-4_-31" target="Ytf4gtK0Q_wr9BrQV-4_-22">
          <mxGeometry relative="1" as="geometry" />
        </mxCell>
        <mxCell id="Ytf4gtK0Q_wr9BrQV-4_-31" value="정류장" style="ellipse;whiteSpace=wrap;html=1;align=center;" vertex="1" parent="1">
          <mxGeometry x="354" y="529" width="100" height="40" as="geometry" />
        </mxCell>
        <mxCell id="Ytf4gtK0Q_wr9BrQV-4_-36" style="rounded=0;orthogonalLoop=1;jettySize=auto;html=1;endArrow=none;endFill=0;" edge="1" parent="1" source="Ytf4gtK0Q_wr9BrQV-4_-34" target="Ytf4gtK0Q_wr9BrQV-4_-20">
          <mxGeometry relative="1" as="geometry" />
        </mxCell>
        <mxCell id="Ytf4gtK0Q_wr9BrQV-4_-34" value="운전사" style="ellipse;whiteSpace=wrap;html=1;align=center;" vertex="1" parent="1">
          <mxGeometry x="499" y="549" width="100" height="40" as="geometry" />
        </mxCell>
        <mxCell id="Ytf4gtK0Q_wr9BrQV-4_-37" style="rounded=0;orthogonalLoop=1;jettySize=auto;html=1;endArrow=none;endFill=0;" edge="1" parent="1" source="Ytf4gtK0Q_wr9BrQV-4_-35" target="Ytf4gtK0Q_wr9BrQV-4_-20">
          <mxGeometry relative="1" as="geometry" />
        </mxCell>
        <mxCell id="Ytf4gtK0Q_wr9BrQV-4_-35" value="조수" style="ellipse;whiteSpace=wrap;html=1;align=center;" vertex="1" parent="1">
          <mxGeometry x="628" y="549" width="100" height="40" as="geometry" />
        </mxCell>
        <mxCell id="Ytf4gtK0Q_wr9BrQV-4_-46" style="rounded=0;orthogonalLoop=1;jettySize=auto;html=1;endArrow=none;endFill=0;" edge="1" parent="1" source="Ytf4gtK0Q_wr9BrQV-4_-38" target="Ytf4gtK0Q_wr9BrQV-4_-21">
          <mxGeometry relative="1" as="geometry" />
        </mxCell>
        <mxCell id="Ytf4gtK0Q_wr9BrQV-4_-38" value="출발점" style="ellipse;whiteSpace=wrap;html=1;align=center;" vertex="1" parent="1">
          <mxGeometry x="86" y="542" width="65" height="38" as="geometry" />
        </mxCell>
        <mxCell id="Ytf4gtK0Q_wr9BrQV-4_-47" style="rounded=0;orthogonalLoop=1;jettySize=auto;html=1;endArrow=none;endFill=0;" edge="1" parent="1" source="Ytf4gtK0Q_wr9BrQV-4_-44" target="Ytf4gtK0Q_wr9BrQV-4_-21">
          <mxGeometry relative="1" as="geometry" />
        </mxCell>
        <mxCell id="Ytf4gtK0Q_wr9BrQV-4_-44" value="종점" style="ellipse;whiteSpace=wrap;html=1;align=center;" vertex="1" parent="1">
          <mxGeometry x="161" y="542" width="65" height="38" as="geometry" />
        </mxCell>
        <mxCell id="Ytf4gtK0Q_wr9BrQV-4_-48" style="rounded=0;orthogonalLoop=1;jettySize=auto;html=1;endArrow=none;endFill=0;" edge="1" parent="1" source="Ytf4gtK0Q_wr9BrQV-4_-45" target="Ytf4gtK0Q_wr9BrQV-4_-21">
          <mxGeometry relative="1" as="geometry" />
        </mxCell>
        <mxCell id="Ytf4gtK0Q_wr9BrQV-4_-45" value="기착점" style="ellipse;shape=doubleEllipse;margin=3;whiteSpace=wrap;html=1;align=center;" vertex="1" parent="1">
          <mxGeometry x="239" y="538.5" width="65" height="43.5" as="geometry" />
        </mxCell>
        <mxCell id="Ytf4gtK0Q_wr9BrQV-4_-49" value="M" style="text;html=1;align=center;verticalAlign=middle;resizable=0;points=[];autosize=1;strokeColor=none;fillColor=none;" vertex="1" parent="1">
          <mxGeometry x="496" y="472" width="28" height="26" as="geometry" />
        </mxCell>
        <mxCell id="Ytf4gtK0Q_wr9BrQV-4_-50" value="N" style="text;html=1;align=center;verticalAlign=middle;resizable=0;points=[];autosize=1;strokeColor=none;fillColor=none;" vertex="1" parent="1">
          <mxGeometry x="277" y="472" width="27" height="26" as="geometry" />
        </mxCell>
      </root>
    </mxGraphModel>
  </diagram>
</mxfile>
